{"title":"State.of.Play.2009.DVDRIP.XviD-ZEKTORM","uid":5061453,"size":754772295,"categoryP":"video","categoryS":"movies","magnet":"?xt=urn:btih:2272aa4cc6326c9391f6975ff57f8a18c16bd5f8&amp;dn=State.of.Play.2009.DVDRIP.XviD-ZEKTORM&amp;tr=udp%3A%2F%2Ftracker.openbittorrent.com%3A80&amp;tr=udp%3A%2F%2Fopen.demonii.com%3A1337&amp;tr=udp%3A%2F%2Ftracker.coppersurfer.tk%3A6969&amp;tr=udp%3A%2F%2Fexodus.desync.com%3A6969","seeders":1,"leechers":0,"uploader":"blowley","files":5,"time":1250721882,"description":"Title                            : State of Play\nYear                             : 2009\nGenre                            : Crime | Drama | Thriller\niMDB URL                         : http://www.imdb.com/title/tt0473705/\n\nComplete name                    : SOP-ZEKTORM.avi\nFormat                           : AVI\nFile size                        : 701 MiB\nDuration                         : 2h 7mn\nOverall bit rate                 : 772 Kbps\nSubtitles                        : English, Spanish, French (Format: VobSub)\nSource                           : DVD NTSC\n\nVideo\nFormat                           : MPEG-4 Visual\nFormat profile                   : Streaming Video@L1\nCodec ID                         : XVID\nCodec ID/Hint                    : XviD\nDuration                         : 2h 7mn\nBit rate                         : 655 Kbps\nWidth                            : 720 pixels\nHeight                           : 304 pixels\nDisplay aspect ratio             : 2.35\nFrame rate                       : 23.976 fps\nResolution                       : 24 bits\nColorimetry                      : 4:2:0\nScan type                        : Progressive\nBits/(Pixel*Frame)               : 0.125\nStream size                      : 595 MiB (85%)\nWriting library                  : XviD\n\nAudio\nFormat                           : MPEG Audio\nFormat version                   : Version 1\nFormat profile                   : Layer 3\nCodec ID                         : 55\nCodec ID/Hint                    : MP3\nDuration                         : 2h 7mn\nBit rate mode                    : Variable\nBit rate                         : 104 Kbps\nMinimum bit rate                 : 128 Kbps\nChannel(s)                       : 2 channels\nSampling rate                    : 48.0 KHz\nResolution                       : 16 bits\nStream size                      : 94.2 MiB (13%)\nWriting library                  : LAME3.98r\nEncoding settings                : ABR\n","torrent":{"xt":"urn:btih:2272aa4cc6326c9391f6975ff57f8a18c16bd5f8","amp;dn":"State.of.Play.2009.DVDRIP.XviD-ZEKTORM","amp;tr":["udp%3A%2F%2Ftracker.openbittorrent.com%3A80","udp%3A%2F%2Fopen.demonii.com%3A1337","udp%3A%2F%2Ftracker.coppersurfer.tk%3A6969","udp%3A%2F%2Fexodus.desync.com%3A6969"],"infoHash":"2272aa4cc6326c9391f6975ff57f8a18c16bd5f8","infoHashBuffer":{"type":"Buffer","data":[34,114,170,76,198,50,108,147,145,246,151,95,245,127,138,24,193,107,213,248]},"announce":[],"urlList":[]}}